<svg xmlns="http://www.w3.org/2000/svg" width="21.094" height="25" viewBox="0 0 21.094 25">
  <path id="Path_10661" data-name="Path 10661" d="M61.094,22.07a.977.977,0,0,1-.977.977h-.977v.977a.977.977,0,1,1-1.953,0v-.977h-.977a.977.977,0,0,1,0-1.953h.977v-.977a.977.977,0,1,1,1.953,0v.977h.977A.977.977,0,0,1,61.094,22.07Zm0-15.234v9.375a.977.977,0,0,1-1.953,0v-8.4H57.188v2.93a.977.977,0,0,1-1.953,0V7.812H45.859v2.93a.977.977,0,0,1-1.953,0V7.812H41.953V23.047H52.3A.977.977,0,1,1,52.3,25H40.977A.977.977,0,0,1,40,24.023V6.836a.977.977,0,0,1,.977-.977h2.976a6.641,6.641,0,0,1,13.189,0h2.976A.977.977,0,0,1,61.094,6.836Zm-5.925-.977a4.688,4.688,0,0,0-9.244,0Z" transform="translate(-40)" fill="#fff"/>
</svg>
