<?xml version="1.0" encoding="UTF-8" standalone="no"?>
<!DOCTYPE svg PUBLIC "-//W3C//DTD SVG 1.1//EN" "http://www.w3.org/Graphics/SVG/1.1/DTD/svg11.dtd">
<svg width="100%" height="100%" viewBox="0 0 7 5" version="1.1" xmlns="http://www.w3.org/2000/svg" xmlns:xlink="http://www.w3.org/1999/xlink" xml:space="preserve" xmlns:serif="http://www.serif.com/" style="fill-rule:evenodd;clip-rule:evenodd;stroke-linejoin:round;stroke-miterlimit:2;">
    <g transform="matrix(1,0,0,1,-33266.8,-2673.46)">
        <g transform="matrix(1,0,0,1.98613,32769.7,2625.69)">
            <g transform="matrix(0.451587,0,0,0.272845,-14523.3,-704.527)">
                <path d="M33268.5,2675.06L33272.8,2670.8C33273.4,2670.21 33274.4,2670.13 33275.1,2670.62C33275.8,2671.11 33275.9,2671.98 33275.3,2672.57L33269.8,2678.1C33269.5,2678.42 33269,2678.6 33268.5,2678.6C33268,2678.6 33267.6,2678.42 33267.3,2678.1L33261.7,2672.57C33261.1,2671.98 33261.2,2671.11 33261.9,2670.62C33262.6,2670.13 33263.7,2670.21 33264.3,2670.8L33268.5,2675.06Z" style="fill:rgb(255,255,255);"/>
            </g>
        </g>
    </g>
</svg>
