<svg xmlns="http://www.w3.org/2000/svg" width="13.978" height="12.874" viewBox="0 0 13.978 12.874"><defs><style>.a{fill:#1f6d71;}</style></defs><g transform="translate(-32357.194 -3039.641)"><g transform="translate(31180.4 2650.54)"><g transform="translate(1204.62 388.173)"><g transform="translate(-28.195)"><path class="a" d="M.972,3.756H2.533a2.237,2.237,0,0,0,4.3,0h6.908a.607.607,0,0,0,.6-.6.616.616,0,0,0-.6-.6H6.834a2.237,2.237,0,0,0-4.3,0H.972a.607.607,0,0,0-.6.6A.616.616,0,0,0,.972,3.756ZM4.684,2.121A1.016,1.016,0,1,1,3.668,3.137,1.018,1.018,0,0,1,4.684,2.121Z"/></g><g transform="translate(-28.195)"><path class="a" d="M13.757,6.761H12.2a2.237,2.237,0,0,0-4.3,0H.972a.607.607,0,0,0-.6.6.616.616,0,0,0,.6.6H7.88a2.237,2.237,0,0,0,4.3,0h1.561a.6.6,0,0,0,.015-1.208Zm-3.712,1.62a1.016,1.016,0,1,1,1.016-1.016A1.018,1.018,0,0,1,10.045,8.381Z"/></g><g transform="translate(-28.195)"><path class="a" d="M13.757,10.974H6.834a2.237,2.237,0,0,0-4.3,0H.972a.6.6,0,0,0,0,1.208H2.533a2.237,2.237,0,0,0,4.3,0h6.908a.607.607,0,0,0,.6-.6A.594.594,0,0,0,13.757,10.974ZM4.684,12.609A1.016,1.016,0,1,1,5.7,11.592,1.018,1.018,0,0,1,4.684,12.609Z"/></g></g></g></g></svg>