<?xml version="1.0" encoding="UTF-8" standalone="no"?>
<!DOCTYPE svg PUBLIC "-//W3C//DTD SVG 1.1//EN" "http://www.w3.org/Graphics/SVG/1.1/DTD/svg11.dtd">
<svg width="100%" height="100%" viewBox="0 0 555 561" version="1.1" xmlns="http://www.w3.org/2000/svg" xmlns:xlink="http://www.w3.org/1999/xlink" xml:space="preserve" xmlns:serif="http://www.serif.com/" style="fill-rule:evenodd;clip-rule:evenodd;stroke-linejoin:round;stroke-miterlimit:2;">
    <g transform="matrix(1,0,0,1,-422.505,-7838.35)">
        <g transform="matrix(1,0,0,0.244403,0,6919.63)">
            <g transform="matrix(9.33971,0,0,228.392,-4532.05,-208972)">
                <g transform="matrix(0,0.0408412,-0.244091,0,3940.38,402.259)">
                    <path d="M13072.2,13858.3L13072.2,13858.3L13072.1,13859.3L13072.2,13858.3Z" style="fill-opacity:0.1;"/>
                </g>
                <g transform="matrix(0.23439,0,0,0.0392179,-2512.51,393.673)">
                    <path d="M13143.3,13956.3C13141,13961.4 13136.2,13965.3 13130.3,13966.3C13129.9,13966.3 13129.6,13966.4 13129.3,13966.4C13116,13968.5 13102.9,13968.5 13090.3,13966.6C13084.3,13965.7 13079.5,13961.8 13077.2,13956.7C13087.4,13959.6 13098.3,13961.1 13109.4,13961.1C13121.2,13961.1 13132.5,13959.4 13143.3,13956.3Z" style="fill-opacity:0.1;"/>
                </g>
                <g transform="matrix(0.23439,0,0,0.0392179,-2512.51,393.673)">
                    <path d="M13014.9,13915.6C13028.8,13932.9 13047.3,13946.4 13068.6,13954C13063.8,13956.8 13057.6,13957.2 13052.2,13954.5C13040.3,13948.5 13029.3,13940.7 13019.8,13931.3C13015.4,13927.1 13013.8,13921.1 13014.9,13915.6Z" style="fill-opacity:0.1;"/>
                </g>
                <g transform="matrix(0.23439,0,0,0.0392179,-2512.51,393.673)">
                    <path d="M13205,13914.3C13206.2,13919.8 13204.6,13925.8 13200.4,13930C13191,13939.5 13180.2,13947.5 13168.2,13953.7C13162.8,13956.5 13156.7,13956.2 13151.8,13953.5C13172.9,13945.5 13191.3,13931.8 13205,13914.3Z" style="fill-opacity:0.1;"/>
                </g>
                <g transform="matrix(0.23439,0,0,0.0392179,-2512.51,393.673)">
                    <path d="M12988.5,13845.8C12989.6,13868.9 12997.2,13890.4 13009.6,13908.4C13004,13907.9 12998.7,13904.6 12995.9,13899.2C12989.9,13887.6 12985.5,13874.9 12983.2,13861.3C12982.2,13855.4 12984.4,13849.6 12988.5,13845.8Z" style="fill-opacity:0.1;"/>
                </g>
                <g transform="matrix(0.23439,0,0,0.0392179,-2512.51,393.673)">
                    <path d="M13230.4,13844.1C13234.6,13847.9 13236.9,13853.6 13235.9,13859.6C13233.8,13873 13229.7,13885.8 13223.7,13897.7C13221,13903 13215.8,13906.4 13210.2,13907.1C13222.3,13888.9 13229.7,13867.3 13230.4,13844.1Z" style="fill-opacity:0.1;"/>
                </g>
                <g transform="matrix(0.23439,0,0,0.0392179,-2512.51,393.673)">
                    <path d="M13008.1,13773.8C12996.2,13792 12989,13813.6 12988.4,13836.9C12984.2,13833.1 12981.9,13827.4 12982.8,13821.4C12984.8,13808 12988.9,13795.1 12994.7,13783.3C12997.4,13777.8 13002.6,13774.5 13008.1,13773.8Z" style="fill-opacity:0.1;"/>
                </g>
                <g transform="matrix(0.23439,0,0,0.0392179,-2512.51,393.673)">
                    <path d="M13209.8,13772.4C13215.4,13773 13220.6,13776.3 13223.4,13781.7C13229.3,13793.3 13233.6,13806.1 13235.8,13819.7C13236.7,13825.6 13234.5,13831.4 13230.4,13835.2C13229.5,13812 13222,13790.4 13209.8,13772.4Z" style="fill-opacity:0.1;"/>
                </g>
                <g transform="matrix(0.23439,0,0,0.0392179,-2512.51,393.673)">
                    <path d="M13013.3,13766.5C13012.1,13761 13013.6,13755 13017.8,13750.7C13027.1,13741.2 13037.8,13733.1 13049.8,13726.8C13055.2,13723.9 13061.3,13724.2 13066.2,13726.9C13045.1,13735 13026.8,13748.8 13013.3,13766.5Z" style="fill-opacity:0.1;"/>
                </g>
                <g transform="matrix(0.23439,0,0,0.0392179,-2512.51,393.673)">
                    <path d="M13151.1,13726.3C13156,13723.6 13162.1,13723.2 13167.5,13726C13179.4,13732.1 13190.3,13740 13199.8,13749.4C13204.1,13753.7 13205.7,13759.7 13204.6,13765.2C13190.8,13747.7 13172.4,13734.1 13151.1,13726.3Z" style="fill-opacity:0.1;"/>
                </g>
                <g transform="matrix(0.183051,0,0,0.030628,-4776.78,-23.5732)">
                    <path d="M29155.7,31195.4C29238.1,31195.4 29304.9,31262.3 29304.9,31344.6C29304.9,31427 29238.1,31493.9 29155.7,31493.9C29073.3,31493.9 29006.5,31427 29006.5,31344.6C29006.5,31262.3 29073.3,31195.4 29155.7,31195.4ZM29155.7,31211.7C29082.4,31211.7 29022.8,31271.3 29022.8,31344.6C29022.8,31418 29082.4,31477.5 29155.7,31477.5C29229,31477.5 29288.6,31418 29288.6,31344.6C29288.6,31271.3 29229,31211.7 29155.7,31211.7ZM29155.7,31220C29224.5,31220 29280.3,31275.9 29280.3,31344.6C29280.3,31413.4 29224.5,31469.2 29155.7,31469.2C29086.9,31469.2 29031.1,31413.4 29031.1,31344.6C29031.1,31275.9 29086.9,31220 29155.7,31220ZM29155.7,31431C29149.9,31431 29145.2,31435.7 29145.2,31441.5C29145.2,31447.3 29149.9,31452 29155.7,31452C29161.5,31452 29166.2,31447.3 29166.2,31441.5C29166.2,31435.7 29161.5,31431 29155.7,31431ZM29112.6,31399.7C29113,31400.7 29113.6,31401.6 29114.4,31402.2C29116.1,31403.6 29119.8,31404.7 29125.6,31405.7C29126,31405.7 29126.5,31406 29127,31406.6C29127.5,31407.1 29127.7,31408.2 29127.7,31409.7C29127.7,31410.7 29127.6,31411.9 29127.3,31413.3C29123.9,31413 29072.3,31413.3 29072.3,31413.3C29072.3,31413.3 29072,31411.4 29072,31411.4L29071.9,31409.7C29071.9,31407.8 29072.4,31406.5 29073.5,31406L29074.2,31405.7C29076.9,31405.3 29079.1,31404.8 29080.8,31404.4C29082.4,31403.9 29083.7,31403.3 29084.7,31402.6C29085.6,31401.9 29086.2,31401.1 29086.6,31400.1C29086.9,31399.2 29087.1,31398.1 29087.1,31396.7C29087.1,31396.7 29092.4,31288 29092.1,31287.2C29091.8,31286.4 29091.3,31285.6 29090.4,31285C29089.6,31284.4 29088.4,31283.8 29086.8,31283.4C29085.1,31283 29082.9,31282.6 29080.1,31282.1C29078.6,31281.7 29077.8,31280.4 29077.8,31278.1L29077.8,31276.5C29077.8,31275.8 29078,31275.1 29078.2,31274.4C29078.2,31274.4 29115.6,31275.5 29117,31275.7C29118.4,31275.9 29119.5,31276.2 29120.3,31276.5C29121.2,31276.7 29121.8,31277.2 29122.1,31277.7C29122.5,31278.3 29122.8,31278.8 29123.1,31279.4L29155.7,31358.2L29188.3,31279.4C29188.6,31278.8 29188.9,31278.3 29189.3,31277.7C29189.6,31277.2 29190.2,31276.7 29191.1,31276.5C29191.9,31276.2 29193,31275.9 29194.4,31275.7C29195.8,31275.5 29233.2,31274.4 29233.2,31274.4C29233.5,31275.1 29233.6,31275.8 29233.6,31276.5L29233.6,31278.1C29233.6,31280.4 29232.8,31281.7 29231.3,31282.1C29228.5,31282.6 29226.3,31283 29224.6,31283.4C29223,31283.8 29221.8,31284.4 29221,31285C29220.1,31285.6 29219.6,31286.4 29219.3,31287.2C29219,31288 29224.3,31396.7 29224.3,31396.7C29224.3,31398.1 29224.5,31399.2 29224.9,31400.1C29225.2,31401.1 29225.8,31401.9 29226.7,31402.6C29227.7,31403.3 29229,31403.9 29230.6,31404.4C29232.3,31404.8 29234.5,31405.3 29237.2,31405.7L29237.9,31406C29239,31406.5 29239.5,31407.8 29239.5,31409.7L29239.4,31411.4C29239.4,31411.4 29239.1,31413.3 29239.1,31413.3C29239.1,31413.3 29187.5,31413 29184.1,31413.3C29183.8,31411.9 29183.7,31410.7 29183.7,31409.7C29183.7,31408.2 29183.9,31407.1 29184.4,31406.6C29184.9,31406 29185.4,31405.7 29185.8,31405.7C29191.6,31404.7 29195.3,31403.6 29197,31402.2C29197.8,31401.6 29198.4,31400.8 29198.8,31399.8L29198.8,31399.9C29198.8,31399.8 29198.8,31399.8 29198.8,31399.8C29199.2,31398.8 29199.4,31397.7 29199.5,31396.4C29202.9,31389.5 29218.3,31389.7 29217.8,31379.2L29217.2,31366.4C29217.7,31376.9 29202.4,31376.6 29198.9,31383.5C29198.8,31381.3 29198.7,31378.8 29198.6,31376.1C29202.1,31369.2 29217.4,31369.4 29216.9,31358.9L29216.3,31346.1C29216.8,31356.5 29201.8,31356.4 29198.1,31363.1C29198,31360.8 29197.9,31358.4 29197.8,31355.9C29201.4,31349.1 29216.5,31349.3 29216,31338.9L29215.4,31326C29215.9,31336.5 29200.6,31336.3 29197.1,31343.2C29197,31341 29196.9,31339 29196.8,31336.9C29200.1,31329.8 29215.6,31330.1 29215.1,31319.6L29214.5,31306.8C29215,31317.9 29197.9,31317 29195.7,31325.2C29192.2,31333.6 29164.5,31400.4 29158.4,31414.6C29158.3,31415 29153.1,31415 29153,31414.6C29146.8,31400.2 29118.3,31331.6 29115.5,31324.8C29112.9,31317 29096.4,31317.7 29096.9,31306.8L29096.3,31319.6C29095.7,31330.2 29111.3,31329.8 29114.6,31337C29114.5,31339 29114.4,31341.1 29114.3,31343.3C29110.8,31336.3 29095.5,31336.6 29096,31326L29095.4,31338.9C29094.9,31349.4 29110.1,31349.1 29113.6,31356C29113.5,31358.5 29113.4,31360.8 29113.3,31363.1C29109.7,31356.4 29094.6,31356.5 29095.1,31346.1L29094.5,31358.9C29094,31369.5 29109.4,31369.2 29112.8,31376.2C29112.7,31378.9 29112.6,31381.3 29112.5,31383.6C29109.1,31376.6 29093.7,31376.9 29094.2,31366.4L29093.6,31379.2C29093.1,31389.8 29108.6,31389.5 29111.9,31396.5C29112,31397.7 29112.2,31398.8 29112.6,31399.7C29112.5,31399.7 29112.5,31399.8 29112.5,31399.9L29112.6,31399.7Z" style="fill-opacity:0.1;"/>
                </g>
                <g transform="matrix(-0.123431,0,0,0.0206523,3113.5,291.039)">
                    <path d="M20788.4,31155.4L20792,31155.2L20792,31155.2L20788.4,31155.4Z" style="fill-opacity:0.1;"/>
                </g>
                <g transform="matrix(0.123431,0,0,0.0206523,-1991.87,291.039)">
                    <path d="M20614.6,31157C20614.8,31157 20614.9,31157 20615.1,31157.1C20615.2,31157.1 20615.3,31157.1 20615.5,31157.1C20615.2,31157.1 20614.9,31157 20614.6,31157Z" style="fill-opacity:0.1;"/>
                </g>
                <g transform="matrix(0.123431,0,0,0.0206523,-1991.87,291.039)">
                    <path d="M20611.5,31156.7C20611.6,31156.7 20611.8,31156.8 20611.9,31156.8C20612,31156.8 20612.2,31156.8 20612.3,31156.8L20611.5,31156.7Z" style="fill-opacity:0.1;"/>
                </g>
                <g transform="matrix(0.123431,0,0,0.0206523,-1991.87,291.039)">
                    <path d="M20609.2,31156.6C20609.5,31156.6 20609.8,31156.7 20610.1,31156.7C20610.4,31156.7 20610.7,31156.7 20611,31156.7C20610.4,31156.7 20609.8,31156.7 20609.2,31156.6Z" style="fill-opacity:0.1;"/>
                </g>
                <g transform="matrix(0.123431,0,0,0.0206523,-1991.87,291.039)">
                    <path d="M20606.6,31156.6C20607,31156.6 20607.4,31156.6 20607.7,31156.6C20607.2,31156.6 20606.6,31156.6 20605.9,31156.6L20606.6,31156.6Z" style="fill-opacity:0.1;"/>
                </g>
                <g transform="matrix(0.123431,0,0,0.0206523,-1991.87,291.039)">
                    <path d="M20603.9,31156.6C20604.4,31156.6 20604.8,31156.6 20605.2,31156.6C20604.6,31156.6 20603.9,31156.6 20603.1,31156.6L20603.9,31156.6Z" style="fill-opacity:0.1;"/>
                </g>
                <g transform="matrix(0.123431,0,0,0.0206523,-1991.87,291.039)">
                    <path d="M20601.3,31156.5C20600.6,31156.5 20599.9,31156.5 20599.2,31156.4L20600.2,31156.5L20601.3,31156.5Z" style="fill-opacity:0.1;"/>
                </g>
                <g transform="matrix(0.123431,0,0,0.0206523,-1991.87,291.039)">
                    <path d="M20582.4,31155.9C20583.3,31155.9 20584.1,31156 20585,31156C20585.9,31156 20586.7,31156.1 20587.6,31156.1C20585.9,31156 20584.1,31156 20582.4,31155.9Z" style="fill-opacity:0.1;"/>
                </g>
                <g transform="matrix(0.123431,0,0,0.0206523,-1991.87,291.039)">
                    <path d="M20614.6,31157C20614.8,31157 20614.9,31157 20615.1,31157.1C20615.2,31157.1 20615.3,31157.1 20615.5,31157.1C20615.2,31157.1 20614.9,31157 20614.6,31157Z" style="fill-opacity:0.1;"/>
                </g>
                <g transform="matrix(0.123431,0,0,0.0206523,-1991.87,291.039)">
                    <path d="M20611.5,31156.7C20611.6,31156.7 20611.8,31156.8 20611.9,31156.8C20612,31156.8 20612.2,31156.8 20612.3,31156.8L20611.5,31156.7Z" style="fill-opacity:0.1;"/>
                </g>
                <g transform="matrix(0.123431,0,0,0.0206523,-1991.87,291.039)">
                    <path d="M20609.2,31156.6C20609.5,31156.6 20609.8,31156.7 20610.1,31156.7C20610.4,31156.7 20610.7,31156.7 20611,31156.7C20610.4,31156.7 20609.8,31156.7 20609.2,31156.6Z" style="fill-opacity:0.1;"/>
                </g>
                <g transform="matrix(0.123431,0,0,0.0206523,-1991.87,291.039)">
                    <path d="M20606.6,31156.6C20607,31156.6 20607.4,31156.6 20607.7,31156.6C20607.2,31156.6 20606.6,31156.6 20605.9,31156.6L20606.6,31156.6Z" style="fill-opacity:0.1;"/>
                </g>
                <g transform="matrix(0.123431,0,0,0.0206523,-1991.87,291.039)">
                    <path d="M20603.9,31156.6C20604.4,31156.6 20604.8,31156.6 20605.2,31156.6C20604.6,31156.6 20603.9,31156.6 20603.1,31156.6L20603.9,31156.6Z" style="fill-opacity:0.1;"/>
                </g>
                <g transform="matrix(0.123431,0,0,0.0206523,-1991.87,291.039)">
                    <path d="M20601.3,31156.5C20600.6,31156.5 20599.9,31156.5 20599.2,31156.4L20600.2,31156.5L20601.3,31156.5Z" style="fill-opacity:0.1;"/>
                </g>
                <g transform="matrix(0.123431,0,0,0.0206523,-1991.87,291.039)">
                    <path d="M20582.4,31155.9C20583.3,31155.9 20584.1,31156 20585,31156C20585.9,31156 20586.7,31156.1 20587.6,31156.1C20585.9,31156 20584.1,31156 20582.4,31155.9Z" style="fill-opacity:0.1;"/>
                </g>
                <g transform="matrix(0.23439,0,0,0.0392179,-2512.51,393.673)">
                    <path d="M13074.7,13724C13077,13718.9 13081.7,13714.9 13087.6,13713.9C13088.3,13713.8 13088.9,13713.7 13089.6,13713.6L13092.1,13713.2C13104.9,13711.5 13117.4,13711.7 13129.5,13713.6C13135.5,13714.6 13140.3,13718.4 13142.6,13723.6C13132.1,13720.6 13120.9,13719 13109.4,13719C13097.4,13719 13085.7,13720.7 13074.7,13724Z" style="fill-opacity:0.1;"/>
                </g>
            </g>
        </g>
    </g>
</svg>
