<svg xmlns="http://www.w3.org/2000/svg" width="32" height="32" viewBox="0 0 32 32">
  <defs>
    <style>
      .cls-1 {
        fill: #1a5a5c;
        fill-rule: evenodd;
      }
    </style>
  </defs>
  <g id="mobile-logo" transform="translate(-21136.217 -1193.552)">
    <g id="Group_2" data-name="Group 2" transform="translate(21150.717 1208.723)">
      <g id="Group_1" data-name="Group 1" transform="translate(0.125) rotate(90)">
        <path id="Path_1" data-name="Path 1" class="cls-1" d="M.013,0h0L0,.125Z"/>
      </g>
    </g>
    <g id="Group_4" data-name="Group 4" transform="translate(21148.363 1224.147)">
      <g id="Group_3" data-name="Group 3">
        <path id="Path_2" data-name="Path 2" class="cls-1" d="M1577.787,1675.238a2.1,2.1,0,0,1-1.561,1.2c-.048,0-.084.012-.12.012a15.319,15.319,0,0,1-4.682.024,2.057,2.057,0,0,1-1.573-1.188,14.179,14.179,0,0,0,3.865.528A14.677,14.677,0,0,0,1577.787,1675.238Z" transform="translate(-1569.853 -1675.238)"/>
      </g>
    </g>
    <g id="Group_6" data-name="Group 6" transform="translate(21140.055 1219.262)">
      <g id="Group_5" data-name="Group 5">
        <path id="Path_3" data-name="Path 3" class="cls-1" d="M1562.374,1670.353a14.573,14.573,0,0,0,6.446,4.609,2.077,2.077,0,0,1-1.969.06,15.364,15.364,0,0,1-3.89-2.785A2.046,2.046,0,0,1,1562.374,1670.353Z" transform="translate(-1562.333 -1670.353)"/>
      </g>
    </g>
    <g id="Group_8" data-name="Group 8" transform="translate(21158.092 1219.106)">
      <g id="Group_7" data-name="Group 7">
        <path id="Path_4" data-name="Path 4" class="cls-1" d="M1585.194,1670.2a2.055,2.055,0,0,1-.552,1.885,15.333,15.333,0,0,1-3.865,2.845,2.079,2.079,0,0,1-1.969-.024A14.785,14.785,0,0,0,1585.194,1670.2Z" transform="translate(-1578.808 -1670.197)"/>
      </g>
    </g>
    <g id="Group_10" data-name="Group 10" transform="translate(21165.104 1210.276)">
      <g id="Group_9" data-name="Group 9">
        <path id="Path_5" data-name="Path 5" class="cls-1" d="M1588.243,1661.77a2.047,2.047,0,0,1,.66,1.86,15.448,15.448,0,0,1-1.465,4.573,2.115,2.115,0,0,1-1.621,1.128A14.419,14.419,0,0,0,1588.243,1661.77Z" transform="translate(-1585.818 -1661.77)"/>
      </g>
    </g>
    <g id="Group_12" data-name="Group 12" transform="translate(21165.055 1201.195)">
      <g id="Group_11" data-name="Group 11">
        <path id="Path_6" data-name="Path 6" class="cls-1" d="M1585.77,1653.164a2.084,2.084,0,0,1,1.633,1.116,15.541,15.541,0,0,1,1.489,4.561,2.113,2.113,0,0,1-.648,1.861A14.417,14.417,0,0,0,1585.77,1653.164Z" transform="translate(-1585.77 -1653.164)"/>
      </g>
    </g>
    <g id="Group_14" data-name="Group 14" transform="translate(21137.436 1194.991)">
      <g id="Group_13" data-name="Group 13" transform="translate(0)">
        <path id="Path_7" data-name="Path 7" class="cls-1" d="M2734.129,2924.51a14.631,14.631,0,1,1-14.77,14.625A14.7,14.7,0,0,1,2734.129,2924.51Zm0,1.6a13.028,13.028,0,1,0,13.156,13.027A13.1,13.1,0,0,0,2734.129,2926.108Zm0,.814a12.214,12.214,0,1,1-12.334,12.214A12.283,12.283,0,0,1,2734.129,2926.921Zm0,20.683a1.029,1.029,0,1,0,1.04,1.03A1.035,1.035,0,0,0,2734.129,2947.6Zm-4.266-3.068a.567.567,0,0,0,.178.245,2.716,2.716,0,0,0,1.109.343.207.207,0,0,1,.139.088.458.458,0,0,1,.069.3,1.669,1.669,0,0,1-.039.353c-.337-.029-5.445,0-5.445,0l-.03-.186-.01-.167c0-.186.049-.313.158-.363l.069-.03c.268-.039.485-.088.654-.127a1.408,1.408,0,0,0,.386-.176.568.568,0,0,0,.188-.245,1.026,1.026,0,0,0,.05-.333s.525-10.655.495-10.734a.43.43,0,0,0-.168-.215,1.007,1.007,0,0,0-.356-.157c-.169-.039-.386-.079-.664-.128-.148-.039-.228-.167-.228-.392v-.157a.766.766,0,0,1,.039-.206s3.7.108,3.841.127a1.6,1.6,0,0,1,.327.078.273.273,0,0,1,.178.117,1.444,1.444,0,0,1,.1.167l3.227,7.724,3.228-7.724a1.447,1.447,0,0,1,.1-.167.271.271,0,0,1,.178-.117,1.6,1.6,0,0,1,.327-.078c.139-.02,3.841-.127,3.841-.127a.5.5,0,0,1,.04.206v.157c0,.226-.079.353-.227.392-.277.049-.5.088-.664.128a1,1,0,0,0-.356.157.429.429,0,0,0-.168.215c-.03.079.495,10.734.495,10.734a.808.808,0,0,0,.059.333.483.483,0,0,0,.178.245,1.405,1.405,0,0,0,.386.176c.168.039.386.089.653.127l.07.03c.109.049.158.177.158.363l-.01.167-.03.186s-5.108-.029-5.445,0a1.688,1.688,0,0,1-.04-.353.457.457,0,0,1,.07-.3.206.206,0,0,1,.139-.088,2.715,2.715,0,0,0,1.108-.343.539.539,0,0,0,.178-.235v0a1.119,1.119,0,0,0,.069-.333c.337-.676,1.861-.657,1.812-1.686l-.06-1.255c.05,1.029-1.465,1-1.811,1.677-.01-.216-.02-.461-.03-.726.347-.677,1.861-.657,1.812-1.686l-.059-1.255c.049,1.02-1.436,1.01-1.8,1.666-.01-.225-.02-.461-.03-.705.356-.667,1.851-.647,1.8-1.666l-.059-1.265c.05,1.03-1.465,1.01-1.812,1.686-.01-.216-.02-.412-.029-.617.326-.7,1.861-.667,1.811-1.7l-.059-1.254c.05,1.088-1.643,1-1.861,1.8-.346.823-3.088,7.371-3.692,8.763a1.234,1.234,0,0,1-.535,0c-.614-1.411-3.435-8.136-3.712-8.8-.257-.764-1.891-.7-1.841-1.764l-.059,1.254c-.06,1.039,1.485,1,1.811,1.706q-.015.294-.03.618c-.346-.686-1.861-.657-1.812-1.7l-.059,1.265c-.049,1.029,1.455,1,1.8,1.676-.01.245-.02.471-.029.7-.357-.656-1.852-.647-1.8-1.666l-.059,1.255c-.05,1.039,1.475,1.009,1.812,1.7-.01.265-.02.5-.03.725-.337-.686-1.861-.656-1.812-1.686l-.059,1.255c-.05,1.039,1.485,1.01,1.812,1.7a.97.97,0,0,0,.069.314c-.01,0-.01.01-.01.02Z" transform="translate(-2719.359 -2924.51)"/>
      </g>
    </g>
    <g id="Group_16" data-name="Group 16" transform="translate(21136.26 1210.49)">
      <g id="Group_15" data-name="Group 15">
        <path id="Path_8" data-name="Path 8" class="cls-1" d="M1559.2,1661.974a14.427,14.427,0,0,0,2.533,7.514,2.062,2.062,0,0,1-1.645-1.1,15.515,15.515,0,0,1-1.525-4.549A2.074,2.074,0,0,1,1559.2,1661.974Z" transform="translate(-1558.54 -1661.974)"/>
      </g>
    </g>
    <g id="Group_18" data-name="Group 18" transform="translate(21136.217 1201.373)">
      <g id="Group_17" data-name="Group 17">
        <path id="Path_9" data-name="Path 9" class="cls-1" d="M1561.557,1653.332a14.48,14.48,0,0,0-2.365,7.574,2.085,2.085,0,0,1-.672-1.861,15.628,15.628,0,0,1,1.429-4.573A2.075,2.075,0,0,1,1561.557,1653.332Z" transform="translate(-1558.497 -1653.332)"/>
      </g>
    </g>
    <g id="Group_20" data-name="Group 20" transform="translate(21139.854 1195.077)">
      <g id="Group_19" data-name="Group 19">
        <path id="Path_10" data-name="Path 10" class="cls-1" d="M1562.182,1652.456a2.079,2.079,0,0,1,.54-1.9,15.366,15.366,0,0,1,3.841-2.869,2.047,2.047,0,0,1,1.969.012A14.55,14.55,0,0,0,1562.182,1652.456Z" transform="translate(-1562.134 -1647.444)"/>
      </g>
    </g>
    <g id="Group_22" data-name="Group 22" transform="translate(21158.008 1194.996)">
      <g id="Group_21" data-name="Group 21">
        <path id="Path_11" data-name="Path 11" class="cls-1" d="M1578.724,1647.63a2.078,2.078,0,0,1,1.969-.036,15.691,15.691,0,0,1,3.877,2.809,2.1,2.1,0,0,1,.576,1.9A14.56,14.56,0,0,0,1578.724,1647.63Z" transform="translate(-1578.724 -1647.364)"/>
      </g>
    </g>
    <g id="Group_24" data-name="Group 24" transform="translate(21145.145 1202.872)">
      <g id="Group_23" data-name="Group 23" transform="translate(0.228 0.013) rotate(180)">
        <path id="Path_12" data-name="Path 12" class="cls-1" d="M0,0,.228.013h0Z"/>
      </g>
    </g>
    <g id="Group_26" data-name="Group 26" transform="translate(21148.1 1202.99)">
      <g id="Group_25" data-name="Group 25">
        <path id="Path_13" data-name="Path 13" class="cls-1" d="M1303.152,1969.135a.057.057,0,0,1,.032.006h.025C1303.19,1969.141,1303.171,1969.135,1303.152,1969.135Z" transform="translate(-1303.152 -1969.135)"/>
      </g>
    </g>
    <g id="Group_28" data-name="Group 28" transform="translate(21147.893 1202.97)">
      <g id="Group_27" data-name="Group 27">
        <path id="Path_14" data-name="Path 14" class="cls-1" d="M1302.956,1969.116c.006,0,.019.006.025.006h.025Z" transform="translate(-1302.956 -1969.116)"/>
      </g>
    </g>
    <g id="Group_30" data-name="Group 30" transform="translate(21147.742 1202.964)">
      <g id="Group_29" data-name="Group 29">
        <path id="Path_15" data-name="Path 15" class="cls-1" d="M1302.811,1969.11c.019,0,.038.006.057.006h.057A.7.7,0,0,1,1302.811,1969.11Z" transform="translate(-1302.811 -1969.11)"/>
      </g>
    </g>
    <g id="Group_32" data-name="Group 32" transform="translate(21147.521 1202.964)">
      <g id="Group_31" data-name="Group 31">
        <path id="Path_16" data-name="Path 16" class="cls-1" d="M1302.646,1969.11h0Z" transform="translate(-1302.602 -1969.11)"/>
      </g>
    </g>
    <g id="Group_34" data-name="Group 34" transform="translate(21147.336 1202.964)">
      <g id="Group_33" data-name="Group 33">
        <path id="Path_17" data-name="Path 17" class="cls-1" d="M1302.476,1969.11h0Z" transform="translate(-1302.425 -1969.11)"/>
      </g>
    </g>
    <g id="Group_36" data-name="Group 36" transform="translate(21147.076 1202.951)">
      <g id="Group_35" data-name="Group 35">
        <path id="Path_18" data-name="Path 18" class="cls-1" d="M1302.311,1969.1a.913.913,0,0,1-.133-.006l.063.006Z" transform="translate(-1302.178 -1969.097)"/>
      </g>
    </g>
    <g id="Group_38" data-name="Group 38" transform="translate(21145.963 1202.918)">
      <g id="Group_37" data-name="Group 37">
        <path id="Path_19" data-name="Path 19" class="cls-1" d="M1301.116,1969.065c.057,0,.107.006.164.006s.107.006.164.006C1301.338,1969.072,1301.224,1969.072,1301.116,1969.065Z" transform="translate(-1301.116 -1969.065)"/>
      </g>
    </g>
    <g id="Group_40" data-name="Group 40" transform="translate(21148.1 1202.99)">
      <g id="Group_39" data-name="Group 39">
        <path id="Path_20" data-name="Path 20" class="cls-1" d="M1303.152,1969.135a.057.057,0,0,1,.032.006h.025C1303.19,1969.141,1303.171,1969.135,1303.152,1969.135Z" transform="translate(-1303.152 -1969.135)"/>
      </g>
    </g>
    <g id="Group_42" data-name="Group 42" transform="translate(21147.893 1202.97)">
      <g id="Group_41" data-name="Group 41">
        <path id="Path_21" data-name="Path 21" class="cls-1" d="M1302.956,1969.116c.006,0,.019.006.025.006h.025Z" transform="translate(-1302.956 -1969.116)"/>
      </g>
    </g>
    <g id="Group_44" data-name="Group 44" transform="translate(21147.742 1202.964)">
      <g id="Group_43" data-name="Group 43">
        <path id="Path_22" data-name="Path 22" class="cls-1" d="M1302.811,1969.11c.019,0,.038.006.057.006h.057A.7.7,0,0,1,1302.811,1969.11Z" transform="translate(-1302.811 -1969.11)"/>
      </g>
    </g>
    <g id="Group_46" data-name="Group 46" transform="translate(21147.521 1202.964)">
      <g id="Group_45" data-name="Group 45">
        <path id="Path_23" data-name="Path 23" class="cls-1" d="M1302.646,1969.11h0Z" transform="translate(-1302.602 -1969.11)"/>
      </g>
    </g>
    <g id="Group_48" data-name="Group 48" transform="translate(21147.336 1202.964)">
      <g id="Group_47" data-name="Group 47">
        <path id="Path_24" data-name="Path 24" class="cls-1" d="M1302.476,1969.11h0Z" transform="translate(-1302.425 -1969.11)"/>
      </g>
    </g>
    <g id="Group_50" data-name="Group 50" transform="translate(21147.076 1202.951)">
      <g id="Group_49" data-name="Group 49">
        <path id="Path_25" data-name="Path 25" class="cls-1" d="M1302.311,1969.1a.913.913,0,0,1-.133-.006l.063.006Z" transform="translate(-1302.178 -1969.097)"/>
      </g>
    </g>
    <g id="Group_52" data-name="Group 52" transform="translate(21145.963 1202.918)">
      <g id="Group_51" data-name="Group 51">
        <path id="Path_26" data-name="Path 26" class="cls-1" d="M1301.116,1969.065c.057,0,.107.006.164.006s.107.006.164.006C1301.338,1969.072,1301.224,1969.072,1301.116,1969.065Z" transform="translate(-1301.116 -1969.065)"/>
      </g>
    </g>
    <g id="Group_54" data-name="Group 54" transform="translate(21148.049 1193.552)">
      <g id="Group_53" data-name="Group 53">
        <path id="Path_27" data-name="Path 27" class="cls-1" d="M1569.552,1647.354a2.094,2.094,0,0,1,1.548-1.212l.24-.036.3-.048a15.6,15.6,0,0,1,4.49.048,2.072,2.072,0,0,1,1.573,1.2,14.708,14.708,0,0,0-8.151.048Z" transform="translate(-1569.552 -1645.919)"/>
      </g>
    </g>
  </g>
</svg>
