<?xml version="1.0" encoding="UTF-8" standalone="no"?>
<!DOCTYPE svg PUBLIC "-//W3C//DTD SVG 1.1//EN" "http://www.w3.org/Graphics/SVG/1.1/DTD/svg11.dtd">
<svg width="100%" height="100%" viewBox="0 0 29 50" version="1.1" xmlns="http://www.w3.org/2000/svg" xmlns:xlink="http://www.w3.org/1999/xlink" xml:space="preserve" xmlns:serif="http://www.serif.com/" style="fill-rule:evenodd;clip-rule:evenodd;stroke-linejoin:round;stroke-miterlimit:2;">
    <g transform="matrix(1,0,0,1,-19460.2,-3992.14)">
        <g transform="matrix(1,0,0,5.99553,19379.8,1184.02)">
            <g transform="matrix(-0.81774,0,0,0.136392,16049.8,-72.1583)">
                <path d="M19503.8,3993.62L19527.6,4017.38C19529.2,4018.94 19529.2,4021.47 19527.6,4023.02C19526.1,4024.58 19523.5,4024.58 19522,4023.02L19495.4,3996.44C19493.8,3994.88 19493.8,3992.36 19495.4,3990.8L19522,3964.21C19523.5,3962.66 19526.1,3962.66 19527.6,3964.21C19529.2,3965.77 19529.2,3968.3 19527.6,3969.85L19503.8,3993.62Z" style="fill:rgb(31,109,113);"/>
            </g>
        </g>
    </g>
</svg>
